<svg width="132" height="27" fill="none" xmlns="http://www.w3.org/2000/svg"><path d="M.68 1.113h5.832c1.968 0 3.444.528 4.428 1.584s1.476 2.604 1.476 4.644v2.484c0 2.04-.492 3.589-1.476 4.645-.984 1.055-2.46 1.583-4.428 1.583H4.64v10.26H.68v-25.2Zm5.832 11.34c.648 0 1.128-.18 1.44-.54.336-.36.504-.972.504-1.835V7.089c0-.864-.168-1.476-.504-1.836-.312-.36-.792-.54-1.44-.54H4.64v7.74h1.872Zm15.939 14.22c-1.944 0-3.432-.551-4.464-1.655-1.032-1.105-1.548-2.665-1.548-4.68V7.088c0-2.016.516-3.576 1.548-4.68C19.019 1.305 20.507.753 22.45.753c1.944 0 3.432.552 4.464 1.656 1.032 1.104 1.548 2.664 1.548 4.68v13.248c0 2.017-.516 3.576-1.548 4.68-1.032 1.105-2.52 1.657-4.464 1.657Zm0-3.6c1.368 0 2.052-.828 2.052-2.483V6.837c0-1.656-.684-2.484-2.052-2.484-1.368 0-2.052.828-2.052 2.484V20.59c0 1.655.684 2.483 2.052 2.483Zm13.805-18.36h-4.14v-3.6h12.24v3.6h-4.14v21.6h-3.96v-21.6Zm12.178-3.6H54.3c2.04 0 3.529.48 4.465 1.44.936.936 1.404 2.388 1.404 4.356v1.548c0 2.616-.864 4.272-2.593 4.968v.072c.96.289 1.633.877 2.017 1.764.407.889.611 2.076.611 3.565v4.427c0 .72.025 1.308.073 1.764.047.433.168.864.36 1.297h-4.032a5.772 5.772 0 0 1-.288-1.152c-.048-.36-.072-1.008-.072-1.944V18.61c0-1.152-.193-1.956-.577-2.412-.36-.457-.995-.684-1.907-.684h-1.368v10.8h-3.96v-25.2Zm5.4 10.8c.791 0 1.38-.204 1.763-.611.408-.409.612-1.092.612-2.053V7.305c0-.912-.168-1.572-.504-1.98-.311-.408-.816-.612-1.511-.612h-1.8v7.2h1.44Zm19.205-10.8h5.832c1.968 0 3.444.528 4.428 1.584s1.476 2.604 1.476 4.644v2.484c0 2.04-.492 3.589-1.476 4.645-.984 1.055-2.46 1.583-4.428 1.583h-1.872v10.26h-3.96v-25.2Zm5.832 11.34c.648 0 1.128-.18 1.44-.54.336-.36.504-.972.504-1.835V7.089c0-.864-.168-1.476-.504-1.836-.312-.36-.792-.54-1.44-.54h-1.872v7.74h1.872Zm15.938 14.22c-1.944 0-3.432-.551-4.464-1.655-1.032-1.105-1.548-2.665-1.548-4.68V7.088c0-2.016.516-3.576 1.548-4.68C91.377 1.305 92.865.753 94.81.753c1.944 0 3.432.552 4.464 1.656 1.032 1.104 1.548 2.664 1.548 4.68v13.248c0 2.017-.516 3.576-1.548 4.68-1.032 1.105-2.52 1.657-4.464 1.657Zm0-3.6c1.368 0 2.052-.828 2.052-2.483V6.837c0-1.656-.684-2.484-2.052-2.484-1.368 0-2.052.828-2.052 2.484V20.59c0 1.655.684 2.483 2.052 2.483Zm13.806-18.36h-4.14v-3.6h12.24v3.6h-4.14v21.6h-3.96v-21.6Zm17.325 21.96c-1.92 0-3.372-.54-4.356-1.62-.984-1.104-1.476-2.675-1.476-4.716v-1.44h3.744v1.729c0 1.631.684 2.447 2.052 2.447.672 0 1.176-.192 1.512-.576.36-.407.54-1.055.54-1.944 0-1.056-.24-1.98-.72-2.771-.48-.817-1.368-1.789-2.664-2.916-1.632-1.44-2.772-2.736-3.42-3.889-.648-1.176-.972-2.496-.972-3.96 0-1.992.504-3.528 1.512-4.608 1.008-1.104 2.472-1.656 4.392-1.656 1.896 0 3.324.552 4.284 1.656.984 1.08 1.476 2.64 1.476 4.68v1.044H128.1V6.837c0-.864-.168-1.488-.504-1.872-.336-.408-.828-.612-1.476-.612-1.32 0-1.98.804-1.98 2.412 0 .912.24 1.764.72 2.556.504.793 1.404 1.752 2.7 2.88 1.656 1.44 2.796 2.748 3.42 3.924.624 1.177.936 2.556.936 4.14 0 2.064-.516 3.648-1.548 4.752-1.008 1.105-2.484 1.657-4.428 1.657Z" fill="#333"/></svg>